<?xml version="1.0" encoding="utf-8"?>
<!-- Generator: Adobe Illustrator 16.0.0, SVG Export Plug-In . SVG Version: 6.00 Build 0)  -->
<!DOCTYPE svg PUBLIC "-//W3C//DTD SVG 1.1//EN" "http://www.w3.org/Graphics/SVG/1.1/DTD/svg11.dtd">
<svg version="1.1" xmlns="http://www.w3.org/2000/svg" xmlns:xlink="http://www.w3.org/1999/xlink" x="0px" y="0px"
	 width="1190.55px" height="841.89px" viewBox="0 0 1190.55 841.89" enable-background="new 0 0 1190.55 841.89"
	 xml:space="preserve">
<g id="Layer_1">
</g>
<g id="First_Page">
	<g id="Layer_9">
	</g>
	<g id="Layer_6">
	</g>
	<g id="cat">
		<g>
			<g>
				<path fill="#010101" d="M782.411,465.472V239.504c0-10.715-8.667-19.382-19.383-19.382H440.307
					c-10.715,0-19.383,8.667-19.383,19.382v225.968h-19.381v34.982l29.624,29.625h341.001l29.625-29.625v-34.982H782.411
					L782.411,465.472z M433.846,239.504c0-3.545,2.916-6.461,6.461-6.461h322.801c3.545,0,6.46,2.916,6.46,6.461v225.968H640.432
					v12.921h-77.449v-12.921H433.846V239.504z M788.871,495.097l-22.061,22.062H436.525l-22.062-22.062v-16.704h135.597v12.922
					h103.293v-12.922H788.95v16.704H788.871z"/>
				<rect x="679.117" y="491.314" fill="#010101" width="77.45" height="12.922"/>
				<path fill="#010101" d="M743.646,258.886H459.61v180.743h284.036V258.886z M730.804,426.707H472.531V271.808h258.193v154.899
					H730.804z"/>
			</g>
			<path fill="#010101" d="M602.815,414.701l-48.278-47.9v-82.923l18.751,18.86h58.941l18.492-18.925v82.983L602.815,414.701z
				 M558.845,365.008l43.958,43.614l43.613-43.609v-3.521l-11.812,6.079l-15.768,22.958l-32.427,0.073l-15.49-23.026l-12.077-6.056
				v3.488H558.845z M558.845,356.699l15.019,7.536l14.838,22.055l11.954-0.025v-11.636l-10.337-11.08h24.592l-9.946,11.057v11.649
				l11.605-0.026l15.1-21.991l14.749-7.591v-33.317l-11.234,5.52h0.105v19.603h-19.74v-14.754l29.325-14.41l-12.61-12.244h-59.009
				L560.409,319.3l23.099,11.35l5.502,2.513v15.289h-19.648V328.85h0.716l-11.234-5.52v33.369H558.845z M600.226,367.856
				l2.555,2.734l2.461-2.734H600.226L600.226,367.856z M619.856,344.146h11.125v-10.988h-4.564l-6.561,3.223V344.146z
				 M573.669,344.146h11.038v-8.109l-3.042-1.493l-3.035-1.386h-4.959v10.988H573.669z M558.845,294.317v20.525l10.471-9.991
				L558.845,294.317z M636.187,304.851l10.229,9.93v-20.397L636.187,304.851z"/>
		</g>
	</g>
	<g id="rocket">
	</g>
</g>
</svg>
