<?xml version="1.0" encoding="utf-8"?>
<!-- Generator: Adobe Illustrator 16.0.0, SVG Export Plug-In . SVG Version: 6.00 Build 0)  -->
<!DOCTYPE svg PUBLIC "-//W3C//DTD SVG 1.1//EN" "http://www.w3.org/Graphics/SVG/1.1/DTD/svg11.dtd">
<svg version="1.1" xmlns="http://www.w3.org/2000/svg" xmlns:xlink="http://www.w3.org/1999/xlink" x="0px" y="0px"
	 width="1190.55px" height="841.89px" viewBox="0 0 1190.55 841.89" enable-background="new 0 0 1190.55 841.89"
	 xml:space="preserve">
<g id="Layer_1">
</g>
<g id="First_Page">
	<g id="Layer_9">
	</g>
	<g id="Layer_6">
	</g>
	<g id="cat">
	</g>
	<g id="rocket">
		<g>
			<path fill="#010101" d="M608.227,330.389c5.583-17.22,24.129-26.682,41.348-21.099c17.22,5.583,26.684,24.128,21.099,41.348
				c-5.583,17.219-24.129,26.682-41.349,21.098C612.106,366.153,602.643,347.608,608.227,330.389 M681.079,354.013
				c7.456-22.99-5.14-47.674-28.131-55.13c-22.99-7.455-47.675,5.141-55.13,28.131s5.141,47.675,28.131,55.13
				C648.939,389.599,673.625,377.004,681.079,354.013"/>
			<path fill="#010101" d="M623.838,335.452c2.791-8.608,12.068-13.341,20.674-10.549c8.607,2.791,13.34,12.066,10.549,20.673
				c-2.79,8.607-12.066,13.341-20.674,10.55C625.78,353.334,621.047,344.059,623.838,335.452 M665.468,348.951
				c4.659-14.368-3.208-29.795-17.582-34.457c-14.367-4.659-29.797,3.214-34.456,17.582c-4.658,14.368,3.215,29.798,17.582,34.457
				C645.386,371.194,660.81,363.318,665.468,348.951"/>
			<g>
				<path fill="#010101" d="M622.589,525.213c6.549-7.016,14.325-15.715,19.469-22.649c2.619-3.54,5.865-8.6,9.233-14.161
					c4.034-6.204,8.019-12.813,11.931-19.804c10.181,19.715,24.403,53.693,20.823,84.438
					C661.011,540.133,637.644,530.697,622.589,525.213 M478.625,486.425c15.143-26.995,46.599-46.16,66.412-56.149
					c-0.933,7.968-1.59,15.663-1.964,23.063c-0.529,6.472-0.877,12.46-0.832,16.857c0.095,8.634,1.286,20.24,2.478,29.766
					C529.311,495.568,504.849,489.494,478.625,486.425 M559.576,406.631l11.245,3.647c2.894,0.938,5.96-0.644,6.892-3.516
					c0.938-2.894-0.645-5.96-3.516-6.892l-12.547-4.068c0.729-3.565,1.5-7.146,2.317-10.751l29.23,9.478
					c2.826,0.917,5.943-0.648,6.875-3.521c0.94-2.899-0.639-5.958-3.501-6.886l-30.062-9.748c0.883-3.521,1.823-7.058,2.785-10.6
					l15.025,4.873c2.894,0.938,5.959-0.645,6.892-3.517c0.939-2.898-0.645-5.959-3.518-6.891l-15.403-4.995
					c1.024-3.48,2.099-6.968,3.204-10.463l5.172,1.677c2.895,0.938,5.953-0.646,6.886-3.519c0.94-2.898-0.644-5.959-3.512-6.889
					l-5.001-1.622c1.236-3.458,2.496-6.892,3.859-10.251l4.518,1.465c2.894,0.938,5.954-0.646,6.885-3.519
					c0.939-2.897-0.644-5.959-3.511-6.889l-3.569-1.157c1.551-3.379,3.193-6.659,4.854-9.928l7.238,2.347
					c2.945,0.955,6.013-0.627,6.943-3.499c0.939-2.898-0.669-5.969-3.568-6.909l-5.387-1.747c1.829-3.283,3.688-6.528,5.608-9.684
					l13.612,4.415c2.893,0.938,5.96-0.644,6.891-3.516c0.94-2.898-0.643-5.96-3.516-6.892l-10.991-3.564
					c2.125-3.222,4.297-6.331,6.482-9.4l28.715,9.311c2.825,0.916,5.944-0.649,6.875-3.521c0.939-2.898-0.638-5.958-3.501-6.886
					l-25.228-8.181c2.433-3.173,4.866-6.243,7.315-9.239c0.166,0.071,0.28,0.2,0.457,0.257l15.61,5.062
					c2.896,0.938,5.961-0.643,6.893-3.516c0.94-2.898-0.644-5.959-3.517-6.891l-11.886-3.854c2.695-3.083,5.366-6.047,8.022-8.901
					l28.068,9.102c2.827,0.917,5.945-0.649,6.875-3.521c0.941-2.898-0.637-5.958-3.499-6.886l-23.022-7.465
					c3.009-3.039,5.955-5.93,8.824-8.641l12.353,4.006c2.896,0.938,5.961-0.644,6.893-3.517c0.939-2.899-0.645-5.96-3.518-6.892
					l-6.494-2.105c6.843-6.074,12.914-11.041,17.743-14.813c9.133,31.55,27.044,111.655,1.77,189.598
					c-8.104,24.994-17.769,48.603-28.285,69.72c-0.015-0.021-0.05-0.073-0.05-0.073s-11.688,21.871-21.544,37.987
					c-9.965,15.177-20.255,27.881-30.429,37.176L556.7,503.467c-0.403-1.965-0.742-4.025-1.064-6.096l14.206,4.606
					c2.893,0.938,5.959-0.645,6.892-3.517c0.938-2.894-0.645-5.96-3.518-6.892l-15.612-5.063c-1.122-0.364-2.244-0.255-3.282,0.07
					c-0.362-4.115-0.577-8.424-0.685-12.856l28.174,9.135c2.826,0.916,5.943-0.649,6.875-3.522c0.939-2.893-0.637-5.957-3.502-6.886
					l-31.254-10.135c-0.104-0.034-0.206-0.016-0.313-0.039c0.052-2.22,0.148-4.501,0.255-6.783c0.118-1.497,0.244-3.021,0.386-4.574
					l13.472,4.369c2.894,0.938,5.961-0.644,6.893-3.517c0.938-2.895-0.645-5.96-3.518-6.892l-15.611-5.062
					c-0.047-0.016-0.094-0.008-0.136-0.021c0.413-3.886,0.844-7.64,1.264-11.114l28.283,9.171c2.824,0.916,5.944-0.649,6.876-3.522
					c0.938-2.893-0.641-5.959-3.501-6.886l-30.282-9.82c0.437-3.384,0.73-5.515,0.73-5.515s-0.07,0.019-0.096,0.027
					C558.94,410.308,559.248,408.475,559.576,406.631 M669.461,457.033c11.863-22.872,22.87-49.03,32.086-77.448
					c33.822-104.307-6.41-210.795-6.41-210.795s-16.477,10.869-38.129,31.039c-0.128,0.125-0.27,0.223-0.389,0.363
					c-30.35,28.346-70.705,74.863-90.372,135.52c-9.216,28.418-15.659,56.056-19.477,81.537
					c-22.656,10.58-70.832,37.337-84.24,78.688c40.777,2.635,80.741,14.77,92.167,18.476c2.099,0.681,3.235,1.079,3.235,1.079
					l-0.021-0.129l44.954,14.577l-0.093,0.091c0,0,1.154,0.346,3.251,1.025c11.434,3.708,50.906,17.331,85.476,39.127
					C704.908,528.834,681.595,478.889,669.461,457.033"/>
				<path fill="#010101" d="M548.263,621.72c-3.935-10.461-8.28-27.669-2.931-44.17c5.286-16.298,17.407-29.414,23.847-35.531
					l12.41,4.023c-0.321,11.974-1.539,30.856-5.033,41.632C571.204,604.177,557.58,615.562,548.263,621.72L548.263,621.72z
					 M566.607,529.682c0,0-23.168,18.234-31.683,44.492c-10.123,31.22,8.34,62.96,8.34,62.96s33.575-14.866,43.698-46.085
					c5.947-18.338,5.661-52.931,5.661-52.931L566.607,529.682z"/>
				<path fill="#010101" d="M466.046,502.823c-2.893-0.938-5.958,0.639-6.891,3.517l-25.313,78.058
					c-0.92,2.836,0.644,5.96,3.517,6.892c2.895,0.938,5.959-0.639,6.892-3.517l25.312-78.058
					C470.481,506.879,468.918,503.756,466.046,502.823"/>
				<path fill="#010101" d="M430.608,612.104c-2.892-0.938-5.957,0.638-6.888,3.511l-1.691,5.215
					c-0.939,2.897,0.646,5.955,3.518,6.885c2.894,0.939,5.959-0.638,6.89-3.511l1.692-5.214
					C435.068,616.092,433.482,613.036,430.608,612.104"/>
				<path fill="#010101" d="M684.606,573.696c-2.894-0.938-5.956,0.639-6.888,3.506l-18.568,57.264
					c-0.93,2.867,0.643,5.947,3.52,6.88c2.895,0.938,5.959-0.639,6.889-3.505l18.569-57.264
					C689.058,577.709,687.484,574.629,684.606,573.696"/>
				<path fill="#010101" d="M627.789,607.031c-2.893-0.938-5.957,0.639-6.889,3.511l-1.691,5.215
					c-0.939,2.898,0.64,5.952,3.518,6.886c2.895,0.939,5.96-0.638,6.891-3.512l1.691-5.214
					C632.248,611.02,630.667,607.963,627.789,607.031"/>
				<path fill="#010101" d="M642.977,560.196c-2.894-0.938-5.95,0.618-6.876,3.47l-6.78,20.909
					c-0.911,2.811,0.653,5.911,3.531,6.844c2.895,0.939,5.953-0.617,6.877-3.469l6.779-20.908
					C647.419,564.23,645.854,561.13,642.977,560.196"/>
				<path fill="#010101" d="M617.665,638.254c-2.894-0.938-5.958,0.64-6.892,3.516l-5.062,15.611
					c-0.94,2.899,0.637,5.959,3.515,6.893c2.896,0.938,5.96-0.639,6.894-3.517l5.063-15.611
					C622.122,642.246,620.543,639.187,617.665,638.254"/>
				<path fill="#010101" d="M507.818,533.623c-2.894-0.94-5.963,0.648-6.897,3.531l-16.863,52.007
					c-0.924,2.847,0.638,5.976,3.512,6.907c2.894,0.938,5.961-0.649,6.896-3.531l16.865-52.009
					C512.253,537.683,510.69,534.553,507.818,533.623"/>
				<path fill="#010101" d="M659.295,651.754c-2.893-0.938-5.966,0.664-6.908,3.568l-3.34,10.304
					c-0.957,2.95,0.621,6.01,3.498,6.942c2.895,0.939,5.969-0.664,6.909-3.568l3.342-10.303
					C663.753,655.746,662.173,652.687,659.295,651.754"/>
			</g>
		</g>
	</g>
</g>
</svg>
