<?xml version="1.0" encoding="utf-8"?>
<!-- Generator: Adobe Illustrator 16.0.0, SVG Export Plug-In . SVG Version: 6.00 Build 0)  -->
<!DOCTYPE svg PUBLIC "-//W3C//DTD SVG 1.1//EN" "http://www.w3.org/Graphics/SVG/1.1/DTD/svg11.dtd">
<svg version="1.1" xmlns="http://www.w3.org/2000/svg" xmlns:xlink="http://www.w3.org/1999/xlink" x="0px" y="0px"
	 width="1190.55px" height="841.89px" viewBox="0 0 1190.55 841.89" enable-background="new 0 0 1190.55 841.89"
	 xml:space="preserve">
<g id="Layer_1">
</g>
<g id="First_Page">
	<g id="Layer_9">
		<g transform="translate(0,-988.36216)">
			<path fill="#010101" d="M484.929,1155.436c-0.421-0.047-0.768-0.004-1.023,0.025c-0.304,0.039-0.354,0.059-0.491,0.089
				c-0.202-0.006-0.405,0.006-0.605,0.038l-6.475,1.035c-0.111,0.015-0.22,0.036-0.328,0.063c-2.525,0.677-4.133,3.382-3.445,5.944
				l1.703,6.374c-1.013,0.666-1.967,1.395-2.877,2.196l-5.705-3.281c-2.256-1.301-5.305-0.485-6.613,1.779c-0.005,0-0.009,0-0.014,0
				l-3.256,5.629c-1.312,2.271-0.516,5.314,1.78,6.638l5.679,3.282c-0.244,1.194-0.392,2.393-0.467,3.609l-6.336,1.691
				c-0.004,0-0.008,0-0.013,0c-2.524,0.677-4.118,3.383-3.433,5.944c0,0.005,0,0.009,0,0.013l0.429,1.565l0.834,3.13l0.416,1.565
				c0,0.008,0,0.016,0,0.025c0.686,2.56,3.384,4.123,5.957,3.433l6.349-1.704c0.674,1.015,1.399,1.979,2.208,2.89l-3.281,5.68
				c-1.313,2.273-0.525,5.313,1.768,6.638l5.642,3.257c2.271,1.31,5.313,0.525,6.639-1.767c0-0.004,0-0.009,0-0.012l3.294-5.692
				c1.19,0.241,2.384,0.407,3.597,0.479l1.691,6.348c0.688,2.57,3.42,4.101,5.957,3.421l6.273-1.679
				c2.524-0.677,4.132-3.381,3.445-5.944l-1.691-6.336c1.011-0.672,1.958-1.415,2.865-2.222l5.704,3.282
				c2.298,1.325,5.323,0.499,6.639-1.78c0-0.004,0-0.008,0-0.012l3.244-5.617h-0.014c1.314-2.274,0.525-5.313-1.767-6.639
				l-5.68-3.282c0.239-1.19,0.385-2.384,0.455-3.597l6.348-1.716c2.525-0.677,4.134-3.381,3.446-5.945c0-0.003,0-0.008,0-0.012
				l-0.429-1.565l-0.404-1.552c-0.004-0.009-0.008-0.017-0.013-0.025l-0.417-1.565l-0.417-1.552c0.001-0.005,0.001-0.009,0-0.013
				c-0.688-2.57-3.419-4.113-5.956-3.433l-6.349,1.705c-0.668-1.02-1.404-1.975-2.208-2.89l3.281-5.692
				c1.312-2.271,0.516-5.314-1.779-6.639l-5.629-3.243c-2.3-1.328-5.324-0.499-6.64,1.78l-3.28,5.68
				c-1.193-0.244-2.396-0.393-3.61-0.468l-1.691-6.348l0.075,0.391c-0.127-0.935-0.825-2.288-1.917-2.902
				C485.846,1155.621,485.35,1155.483,484.929,1155.436z M634.804,1161.305c-9.458,0-18.069,4.566-24.132,11.713
				c-2.905-1.458-5.912-2.825-9.187-2.827c-10.885,0.003-19.585,8.469-20.599,19.095c-1.315-0.392-2.447-1.324-3.837-1.325
				c-5.854,0.003-10.481,3.951-12.672,9.201c-10.811,0.843-19.437,9.662-19.437,20.686c0,11.58,9.422,21.001,21.002,21.001h16.117
				h25.873v26.303H483.011c-8.152,0-14.805,6.683-14.805,14.842v65.933h-8.897V1306.7c-0.001-1.785-1.447-3.231-3.231-3.231h-45.234
				c-1.784,0-3.23,1.447-3.23,3.231v77.543c0,1.786,1.446,3.232,3.23,3.232h45.234c1.784,0,3.23-1.446,3.231-3.232v-31.855h8.897
				v80.964h-16.155c-1.784,0-3.23,1.447-3.231,3.23c0,19.535,15.828,35.352,35.364,35.352h252.37
				c19.538,0,35.365-15.816,35.365-35.352c-0.001-1.783-1.447-3.23-3.23-3.23h-16.156v-84.649h13.72
				c1.784,0.025,3.252-1.4,3.277-3.186c0.025-1.784-1.4-3.251-3.186-3.276c-0.031,0-0.062,0-0.092,0h-4.178
				c-3.48,0-6.261-2.786-6.261-6.462v-1.123v-5.339h39.038c3.896,0,6.941-3.353,6.941-7.168v-76.131
				c0-3.816-3.045-7.168-6.941-7.168H685.957c-3.896,0-6.941,3.352-6.941,7.168v19.134h-64.62v-26.303h24.296h16.104
				c11.58,0,21.002-9.422,21.002-21.001c0-7.385-4.199-13.423-9.971-17.152c0.563-2.396,1.085-4.815,1.086-7.282
				C666.911,1175.721,652.496,1161.306,634.804,1161.305z M481.71,1161.582c0.456,0.261,0.381,0.02,0.694,0.101l0.014,0.025
				L481.71,1161.582z M482.544,1162.176l1.69,6.311c0.39,1.464,1.743,2.461,3.256,2.398c2.303-0.104,4.607,0.198,6.803,0.896
				c1.449,0.464,3.027-0.146,3.787-1.465l3.533-6.121l2.853,1.641l-3.521,6.121c-0.754,1.308-0.503,2.964,0.605,3.988
				c1.698,1.562,3.113,3.412,4.166,5.465c0.696,1.352,2.241,2.036,3.71,1.641l6.842-1.83c0,0.008,0,0.016,0,0.025l0.429,1.553
				l0.403,1.565c0.004,0.008,0.009,0.016,0.013,0.025l-6.841,1.842c-1.468,0.396-2.462,1.762-2.386,3.282
				c0.113,2.301-0.181,4.604-0.87,6.802c-0.451,1.442,0.157,3.004,1.464,3.761l6.108,3.521l-1.653,2.865l-6.134-3.534
				c-1.316-0.755-2.981-0.493-4,0.631c-1.548,1.704-3.388,3.113-5.428,4.178c-1.342,0.699-2.019,2.236-1.628,3.697l1.83,6.815
				l-3.192,0.858l-1.831-6.828c-0.391-1.468-1.751-2.467-3.269-2.398c-2.302,0.108-4.606-0.189-6.803-0.884
				c-1.446-0.458-3.016,0.151-3.774,1.464l-3.521,6.121l-2.866-1.653l3.534-6.121c0.766-1.316,0.508-2.988-0.617-4.013
				c-1.705-1.553-3.128-3.395-4.19-5.44c-0.701-1.347-2.245-2.025-3.711-1.628l-6.815,1.843v-0.013c0-0.004,0-0.008,0-0.012
				l-0.846-3.155c0-0.004,0-0.008,0-0.013l6.815-1.817c1.469-0.391,2.466-1.751,2.397-3.269c-0.103-2.302,0.198-4.606,0.896-6.803
				c0.458-1.445-0.15-3.015-1.464-3.774l-6.121-3.534l1.653-2.852l6.121,3.508c1.308,0.755,2.963,0.503,3.988-0.606
				c1.559-1.695,3.404-3.111,5.453-4.165c1.351-0.697,2.035-2.242,1.64-3.711l-1.792-6.664L482.544,1162.176z M634.804,1167.767
				c14.2,0.001,25.646,11.445,25.646,25.646c0,2.537-0.381,5.058-1.123,7.484c-0.468,1.531,0.258,3.175,1.704,3.861
				c4.916,2.334,8.306,7.244,8.306,13.088c0,8.11-6.43,14.54-14.541,14.54h-16.104h-17.759v-9.693h7.535
				c1.785-0.006,3.227-1.458,3.221-3.243c-0.003-0.891-0.374-1.74-1.024-2.349l-17.29-16.155c-0.641-0.601-1.497-0.915-2.374-0.871
				c-0.775,0.041-1.51,0.359-2.068,0.896l-16.939,16.155c-1.288,1.235-1.334,3.28-0.1,4.569c0.606,0.634,1.445,0.993,2.322,0.997
				h7.547v9.693h-19.701h-16.117c-8.11,0-14.539-6.429-14.539-14.54c0-8.109,6.428-14.539,14.539-14.539h0.227
				c1.533,0.001,2.856-1.074,3.168-2.575c0.752-3.684,3.951-6.309,7.712-6.31c1.763,0.001,3.461,0.602,4.847,1.691
				c1.4,1.105,3.433,0.867,4.538-0.533c0.551-0.698,0.79-1.592,0.662-2.471c-0.091-0.634-0.133-1.276-0.14-1.918
				c-0.001-8.067,6.46-14.537,14.528-14.54c2.905,0.002,5.734,0.879,8.14,2.512c1.448,0.987,3.419,0.64,4.443-0.783
				C618.887,1171.72,626.589,1167.767,634.804,1167.767z M488.702,1174.153v0.013c-0.218,0.011-0.433,0.046-0.644,0.101
				c-0.008,0.005-0.017,0.009-0.025,0.013c-1.291,0.026-2.587,0.083-3.837,0.416c-7.871,2.117-12.979,9.821-11.877,17.897
				c0.06,0.41,0.126,0.814,0.215,1.224c0.046,0.229,0.087,0.445,0.128,0.631c0.014,0.059,0.03,0.119,0.05,0.177
				c0.051,0.193,0.118,0.391,0.188,0.606h-0.013c0.141,0.432,0.304,0.855,0.48,1.274l0.012,0.013
				c3.079,7.547,11.346,11.668,19.222,9.567c0.005,0,0.01,0,0.014,0c7.872-2.125,12.966-9.833,11.851-17.909
				c-0.02-0.155-0.038-0.332-0.076-0.556c0-0.021,0-0.042,0-0.063c-0.079-0.462-0.184-0.926-0.302-1.376
				c-0.005-0.013-0.01-0.025-0.014-0.038c-0.136-0.492-0.297-0.977-0.479-1.451c-0.004-0.017-0.008-0.034-0.013-0.051l-0.037-0.076
				c0-0.004,0-0.008,0-0.013c-0.033-0.076-0.078-0.19-0.126-0.303c-2.168-5.31-7.114-8.662-12.697-9.529
				c-0.249-0.172-0.521-0.308-0.808-0.404l-0.025,0.127c-0.313-0.033-0.553-0.278-0.87-0.291
				C488.913,1174.148,488.808,1174.148,488.702,1174.153z M488.766,1180.627h0.013c3.83,0.16,7.208,2.52,8.658,6.071
				c0.012,0.038,0.024,0.076,0.037,0.114c0.013,0.026,0.039,0.081,0.077,0.177l0.037,0.076c0.101,0.27,0.188,0.545,0.265,0.82
				c0.066,0.257,0.119,0.524,0.163,0.783c0.014,0.085,0.02,0.18,0.038,0.328c0.005,0.021,0.009,0.042,0.014,0.063
				c0.677,4.9-2.357,9.497-7.131,10.791c-4.786,1.277-9.72-1.179-11.587-5.768c-0.004-0.017-0.009-0.034-0.012-0.051
				c-0.111-0.262-0.215-0.523-0.303-0.795c0-0.004,0-0.009,0-0.013c-0.033-0.097-0.068-0.207-0.102-0.328v-0.013
				c-0.025-0.11-0.044-0.229-0.063-0.315c-0.003-0.042-0.007-0.084-0.012-0.126c-0.052-0.242-0.104-0.48-0.139-0.732
				c-0.67-4.899,2.369-9.477,7.144-10.766C486.809,1180.691,487.788,1180.589,488.766,1180.627z M423.629,1206.602
				c-0.193,0.021-0.384,0.059-0.568,0.113l-7.535,2.02c-2.698,0.724-4.406,3.6-3.673,6.336l2.158,8.039
				c-1.476,0.938-2.858,1.993-4.152,3.168l-7.193-4.127c-2.412-1.393-5.669-0.54-7.068,1.88l-3.9,6.765
				c-1.4,2.426-0.57,5.667,1.881,7.081l7.194,4.152c-0.378,1.711-0.614,3.437-0.694,5.187l-8.002,2.146
				c-2.698,0.723-4.419,3.6-3.685,6.335c0.004,0.004,0.008,0.008,0.013,0.013l0.504,1.88l1.011,3.761l0.491,1.88
				c0.005,0.004,0.009,0.009,0.014,0.013c0.732,2.734,3.602,4.41,6.348,3.673c0.004,0,0.008,0,0.013,0l8.015-2.158
				c0.945,1.476,1.995,2.859,3.181,4.152l-4.152,7.182c-1.402,2.428-0.557,5.665,1.894,7.081l6.764,3.912
				c2.429,1.402,5.666,0.555,7.081-1.893l4.151-7.194c1.712,0.374,3.438,0.605,5.188,0.681l2.134,8.015
				c0.004,0.004,0.009,0.008,0.012,0.012c0.735,2.744,3.638,4.375,6.349,3.648l7.535-2.02c2.699-0.723,4.406-3.598,3.673-6.335
				l-2.146-8.014c1.474-0.946,2.852-2.009,4.141-3.193l7.207,4.152c2.452,1.407,5.665,0.524,7.067-1.906c0.004,0,0.008,0,0.013,0
				l3.887-6.752h-0.012c1.401-2.429,0.567-5.666-1.881-7.081l-7.182-4.152c0.372-1.712,0.596-3.436,0.669-5.187l8.014-2.158
				c2.699-0.723,4.407-3.599,3.673-6.335c0-0.004,0-0.009,0-0.013l-0.505-1.868l-0.492-1.88c-0.003-0.009-0.008-0.018-0.012-0.026
				l-0.505-1.868l-0.493-1.881c-0.003-0.004-0.008-0.008-0.012-0.012c-0.735-2.744-3.638-4.386-6.349-3.661
				c-0.005,0-0.009,0-0.013,0l-8.002,2.159c-0.94-1.486-1.998-2.875-3.18-4.178l4.14-7.168c1.4-2.427,0.559-5.667-1.894-7.08
				l-6.765-3.913c-2.456-1.417-5.675-0.527-7.081,1.906l-4.152,7.194c-1.712-0.378-3.436-0.602-5.188-0.681l-2.132-8.027
				l0.075,0.392c-0.144-1.043-0.759-2.132-1.489-2.764s-1.456-0.889-1.995-1.035c-0.521-0.141-0.897-0.173-1.11-0.202
				c-0.009-0.004-0.017-0.009-0.025-0.012h-0.011c-0.295-0.094-0.602-0.145-0.909-0.152
				C423.848,1206.597,423.737,1206.597,423.629,1206.602z M611.189,1207.75l9.088,8.481h-2.576c-1.783,0-3.229,1.447-3.23,3.231
				v12.924h-6.247v-12.924c0-1.784-1.446-3.23-3.231-3.231h-2.7L611.189,1207.75z M423.501,1213.278l2.36,8.822
				c0.392,1.468,1.752,2.466,3.27,2.398c2.838-0.127,5.674,0.25,8.381,1.111c1.445,0.458,3.015-0.151,3.773-1.464l4.568-7.927
				l4.544,2.625l-4.556,7.901c-0.752,1.311-0.495,2.967,0.617,3.988c2.094,1.926,3.828,4.209,5.125,6.739
				c0.696,1.353,2.242,2.035,3.71,1.642l8.836-2.373l0.164,0.631c0,0.008,0,0.017,0,0.025l0.517,1.881l0.492,1.868
				c0,0.008,0,0.016,0,0.025l0.178,0.631l-8.836,2.373c-1.468,0.396-2.461,1.763-2.385,3.281c0.138,2.836-0.223,5.671-1.072,8.38
				c-0.452,1.442,0.156,3.003,1.463,3.761l7.889,4.569l-2.625,4.543l-7.927-4.569c-1.315-0.755-2.98-0.493-4,0.631
				c-1.908,2.101-4.174,3.85-6.689,5.162c-1.342,0.7-2.018,2.236-1.628,3.698l2.36,8.797l-5.075,1.363l-2.359-8.821
				c-0.39-1.469-1.75-2.467-3.269-2.398c-2.837,0.133-5.672-0.23-8.381-1.085c-1.444-0.458-3.015,0.151-3.773,1.464l-4.556,7.9
				l-4.557-2.625l4.569-7.914c0.758-1.313,0.501-2.977-0.619-4c-2.102-1.913-3.852-4.193-5.162-6.714
				c-0.7-1.347-2.244-2.025-3.711-1.628l-8.809,2.373l-0.164-0.644c0-0.004,0-0.008,0-0.012l-1.01-3.774c0-0.004,0-0.008,0-0.013
				l-0.177-0.631l8.81-2.347c1.463-0.396,2.455-1.755,2.385-3.27c-0.128-2.839,0.25-5.686,1.11-8.393
				c0.459-1.446-0.15-3.015-1.463-3.773l-7.901-4.557l2.626-4.543l7.9,4.543c1.311,0.751,2.967,0.495,3.988-0.618
				c1.92-2.092,4.202-3.826,6.727-5.125c1.352-0.696,2.035-2.241,1.641-3.71l-2.372-8.835L423.501,1213.278z M430.633,1229.711
				v0.013c-0.213,0.013-0.425,0.047-0.631,0.101c-0.009,0.004-0.017,0.008-0.025,0.012c-1.55,0.02-3.106,0.106-4.606,0.505
				c-0.005,0-0.008,0-0.013,0c-9.136,2.456-15.05,11.377-13.77,20.749c0.066,0.477,0.148,0.952,0.252,1.427
				c0.046,0.256,0.098,0.524,0.164,0.808c0.012,0.042,0.025,0.084,0.039,0.126c0.072,0.261,0.135,0.471,0.188,0.644
				c0.004,0.018,0.008,0.034,0.013,0.051c0.168,0.517,0.357,1.028,0.568,1.527l0.012,0.013c3.581,8.744,13.155,13.505,22.289,11.069
				c0.005,0,0.009,0,0.013,0c9.131-2.465,15.045-11.393,13.757-20.762c-0.026-0.228-0.052-0.45-0.088-0.682
				c-0.004-0.017-0.009-0.033-0.013-0.05c-0.092-0.533-0.203-1.064-0.341-1.59c-0.004-0.017-0.009-0.033-0.014-0.051
				c-0.157-0.57-0.346-1.131-0.555-1.679c-0.004-0.012-0.008-0.025-0.013-0.037l-0.037-0.102c-0.005-0.004-0.009-0.008-0.013-0.012
				c-0.059-0.146-0.104-0.268-0.151-0.378l-0.014-0.013c-2.791-6.821-9.319-11.395-16.685-11.687
				C430.852,1229.705,430.741,1229.705,430.633,1229.711z M430.695,1236.161v0.012h0.014c4.851,0.197,9.132,3.203,10.967,7.699
				c0.009,0.017,0.017,0.035,0.025,0.051c0.052,0.121,0.083,0.225,0.114,0.303v-0.025l0.037,0.101
				c0.134,0.352,0.241,0.702,0.342,1.06v-0.038c0.09,0.342,0.153,0.683,0.214,1.035c0.02,0.125,0.037,0.249,0.051,0.379
				c0.003,0.042,0.008,0.084,0.013,0.126c0.855,6.196-2.988,12.008-9.023,13.644c-6.053,1.613-12.294-1.493-14.653-7.295
				c-0.009-0.018-0.018-0.034-0.025-0.051c-0.135-0.319-0.259-0.646-0.367-0.972l-0.012-0.051c-0.052-0.176-0.095-0.331-0.126-0.442
				c-0.032-0.139-0.059-0.277-0.089-0.441c-0.007-0.043-0.016-0.085-0.025-0.127c-0.067-0.307-0.12-0.618-0.164-0.934
				c-0.84-6.194,3.012-11.995,9.05-13.618C428.229,1236.259,429.463,1236.113,430.695,1236.161z M685.957,1245.31h108.895
				c0.217,0,0.48,0.161,0.48,0.707v76.131c0,0.546-0.264,0.706-0.48,0.706h-41.688c-0.208-0.037-0.42-0.054-0.632-0.05
				c-0.188,0-0.38,0.017-0.567,0.05H728.78c-0.208-0.037-0.42-0.054-0.631-0.05c-0.19,0-0.381,0.017-0.568,0.05h-41.624
				c-0.217,0-0.48-0.16-0.48-0.706v-76.131C685.477,1245.471,685.74,1245.31,685.957,1245.31z M695.17,1251.772
				c-1.784,0-3.23,1.446-3.23,3.231v51.696c0,1.784,1.446,3.231,3.23,3.231h90.469c1.784,0,3.23-1.447,3.23-3.231v-51.696
				c0-1.785-1.446-3.231-3.23-3.231H695.17z M698.401,1258.235h84.006v45.233h-84.006V1258.235z M483.011,1271.613h124.923v13.024
				H490.822c-1.784,0-3.23,1.447-3.23,3.231v58.057h-12.924v-65.933C474.668,1275.294,478.334,1271.613,483.011,1271.613z
				 M614.396,1271.613h64.62v13.024h-64.62V1271.613z M494.054,1291.1h113.88v6.5c-2.287,0.123-4.581,0.344-6.854,0.758
				c-6.741,1.227-13.348,3.741-19.462,7.623c-22.242,14.12-30.899,41.852-21.683,65.794h-46.496v-22.617
				c0-1.785-1.446-3.231-3.23-3.231h-16.155V1291.1z M614.396,1291.1h64.62v31.048c0,3.816,3.046,7.168,6.941,7.168h39.012v5.339
				c0,0.017,0,0.034,0,0.05l0.025,1.073c0,3.676-2.779,6.462-6.26,6.462h-4.178c-1.784-0.025-3.252,1.401-3.276,3.185
				c-0.025,1.785,1.4,3.252,3.186,3.277c0.029,0.001,0.06,0.001,0.091,0h12.129v6.462h-32.311v-12.469
				c0-1.785-1.446-3.231-3.23-3.231h-27.022c-1.601-6.73-4.492-13.255-8.759-19.196c-9.9-13.792-25.134-21.571-40.968-22.592V1291.1
				z M514.185,1297.006c-0.84,0.014-1.641,0.354-2.234,0.947l-6.425,6.437c-1.286,1.236-1.328,3.282-0.092,4.569
				c1.236,1.287,3.281,1.33,4.569,0.093c0.03-0.03,0.062-0.061,0.093-0.093l0.908-0.909v13.921
				c-0.025,1.785,1.401,3.252,3.186,3.277s3.251-1.401,3.276-3.185c0.001-0.031,0.001-0.061,0-0.092v-13.921l0.908,0.909
				c1.236,1.287,3.282,1.33,4.569,0.093c1.287-1.236,1.329-3.281,0.094-4.569c-0.031-0.031-0.063-0.063-0.094-0.093l-6.424-6.437
				C515.901,1297.335,515.059,1296.993,514.185,1297.006z M611.215,1303.91c14.937,0.091,29.565,7.119,38.898,20.118
				c14.933,20.799,11.054,49.562-8.859,65.655l4.063,5.022c15.033-12.149,21.952-30.755,19.903-48.78h22.691v12.469
				c0.002,1.785,1.448,3.231,3.232,3.231h35.541v52.25H494.054v-61.489h12.924v22.617c0,1.784,1.446,3.23,3.231,3.231h52.668
				c0.101,0.187,0.173,0.382,0.277,0.568c14.104,25.3,45.586,35.218,71.649,22.578l-2.827-5.817
				c-23.038,11.172-50.713,2.447-63.181-19.916c-12.468-22.364-5.335-50.481,16.28-64.203
				C593.184,1306.299,602.254,1303.855,611.215,1303.91z M414.074,1309.931h38.771v12.923h-38.771V1309.931z M611.164,1309.931
				c-23.158,0-42.002,18.843-42.002,42.002c0,23.16,18.844,42.002,42.002,42.002c23.16,0,42.004-18.843,42.004-42.002
				C653.168,1328.774,634.324,1309.931,611.164,1309.931z M740.529,1312.808c-1.975,0.003-3.573,1.607-3.57,3.583v0.001
				c0.003,1.972,1.601,3.57,3.57,3.572c1.977,0.004,3.582-1.594,3.585-3.57c0,0,0-0.001,0-0.002c0.004-1.975-1.594-3.581-3.57-3.584
				C740.539,1312.808,740.534,1312.808,740.529,1312.808z M427.036,1313.161v6.462h12.849v-6.462H427.036z M527.108,1316.392
				c-1.784,0.028-3.208,1.498-3.181,3.282l0,0v14.312l-0.997-0.934c-0.629-0.603-1.477-0.926-2.348-0.896
				c-1.783,0.059-3.182,1.553-3.122,3.336c0.029,0.877,0.413,1.705,1.065,2.293l6.437,5.982c1.238,1.148,3.152,1.148,4.393,0
				l6.436-5.982c1.307-1.216,1.381-3.262,0.165-4.569c-1.217-1.306-3.263-1.38-4.569-0.164l-0.996,0.934v-14.312
				c0.027-1.784-1.396-3.253-3.182-3.282C527.176,1316.391,527.142,1316.391,527.108,1316.392z M611.164,1316.392
				c8.231,0,15.768,2.81,21.785,7.484c-0.246,0.115-0.496,0.209-0.694,0.53c-0.271,0.438-1.028,0.795-1.679,0.795
				c-0.651,0-1.945,0.721-2.878,1.59c-1.212,1.128-1.981,1.344-2.688,0.757c-1.107-0.919-2.351,0.313-1.578,1.565
				c0.246,0.399-0.265,0.542-1.135,0.315c-0.871-0.231-2.218-0.135-2.992,0.203c-0.772,0.337-1.677,0.55-2.006,0.479
				c-0.33-0.07-0.594,0.242-0.594,0.681c0,0.439-0.714,0.068-1.591-0.808c-2.181-2.182-3.454-2.01-6.322,0.858
				c-2.665,2.664-3.104,4.315-1.325,4.998c0.741,0.285,1.423-0.375,1.956-1.906c0.936-2.684,2.573-3.23,1.894-0.63
				c-0.32,1.228-0.16,1.545,0.543,1.11c0.721-0.447,0.695-0.162-0.076,1.073c-0.577,0.923-1.399,1.696-1.843,1.741
				c-3.521,0.267-5.994,1.757-5.994,3.623c0,0.604-0.389,1.098-0.859,1.098c-0.47,0-0.741,0.845-0.605,1.881
				c0.136,1.035-0.218,2.437-0.783,3.117c-1.534,1.85-2.106,6.743-0.958,8.127c0.538,0.65,2.158,1.408,3.609,1.679
				c2.771,0.521,3.549,1.876,3.572,6.21c0.005,1.249,0.584,3.478,1.286,4.959c1.098,2.313,1.505,2.583,2.84,1.868
				c0.856-0.459,1.741-1.445,1.97-2.183c0.227-0.738,0.741-1.965,1.147-2.726c0.406-0.762,0.745-2.268,0.745-3.345
				c0-1.077,0.785-3.305,1.755-4.947c1.68-2.849,1.692-2.961,0.201-2.436c-1.042,0.367-0.832,0,0.63-1.111
				c2.172-1.646,3.032-4.109,1.301-3.724c-0.492,0.111-1.071-0.251-1.274-0.808c-0.296-0.813,0.08-0.826,1.894-0.05
				c3.426,1.465,4.112,2.158,4.67,4.695c0.496,2.272,2.303,4.39,1.881,2.221c-0.316-1.627,0.89-4.657,1.855-4.657
				c0.467,0,1.699,0.911,2.737,2.032c2.037,2.197,3.836,1.939,3.08-0.441c-0.32-1.011,0.029-1.624,1.124-1.969
				c1.823-0.578,2.604-2.428,2.107-5.01c-0.307-1.595-0.164-1.705,1.3-0.921c1.06,0.57,1.466,0.595,1.136,0.063
				c-0.282-0.456,0.258-1.546,1.199-2.423c1.23-1.144,1.576-2.146,1.225-3.546c-0.241-0.958-0.205-1.703,0.176-2.285
				c-0.529-1.142-1.115-2.259-1.754-3.344c3.501,5.506,5.554,12.032,5.554,19.058c0,4.385-0.828,8.558-2.272,12.432
				c-0.82,0.137-2.051,0.896-3.345,2.246c-1.825,1.904-2.121,2.755-1.679,4.771c0.16,0.729,0.293,1.182,0.441,1.502
				c-6.458,8.834-16.875,14.59-28.688,14.59c-9.058,0-17.282-3.406-23.551-8.961c0.281-0.612,0.622-1.176,0.984-1.477
				c2.276-1.892,6.363-8.371,6.942-11.005c0.436-1.983,0.245-2.498-1.111-2.928c-0.903-0.287-1.641-0.99-1.641-1.565
				s-1.175-1.478-2.6-2.006c-1.425-0.529-3.155-1.256-3.85-1.616c-0.242-0.126-0.461-0.192-0.655-0.189
				c-0.587,0.006-1.006,0.629-1.541,2.108c-1.312,3.628-1.164,5.294,0.644,7.219c1.435,1.528,1.52,2.245,0.871,8.028
				c-0.07,0.63-0.053,0.937-0.102,1.488c-6.143-6.384-9.933-15.049-9.933-24.636c0-0.651,0.066-1.289,0.102-1.931
				c1.9,2.535,4.18,4.905,5.982,5.844c1.049,0.547,2.09,0.823,2.31,0.618c0.22-0.204-0.034-0.532-0.556-0.719
				c-0.525-0.188-0.768-0.815-0.543-1.401c0.257-0.67-0.137-1.022-1.047-0.946c-0.959,0.079-1.451-0.422-1.451-1.477
				c0-1.217,0.524-1.61,2.195-1.565c1.229,0.02,2.196-0.394,2.196-0.946c0-1.351,3.512-5.049,4.872-5.124
				c0.81-0.052,0.844-0.174,0.113-0.467c-1.97-0.795-1.007-2.037,1.186-1.528c1.628,0.377,1.886,0.297,0.998-0.303
				c-0.659-0.444-0.848-0.82-0.43-0.82c0.418-0.005-0.48-1.233-1.993-2.726c-2.903-2.862-3.951-2.978-3.951-0.429
				c0,1.857-0.768,1.954-2.84,0.353c-1.405-1.085-1.426-1.288-0.265-2.196c0.703-0.55,1.529-1.804,1.843-2.789
				c0.616-1.942,1.643-2.315,2.512-0.909c0.302,0.487,0.114,1.161-0.417,1.489c-0.693,0.429-0.575,0.75,0.43,1.136
				c1.43,0.549,2.904-0.835,2.461-2.31c-0.288-0.956-3.958-2.972-5.691-3.357c0.349-0.427,0.729-0.827,1.098-1.237h0.012
				c1.096-1.219,2.256-2.375,3.51-3.433c1.239,0.8,2.917,3.384,3.369,5.491c0.298,1.389,0.884,3.181,1.301,3.976
				c0.965,1.841,2.571,1.339,2.902-0.909c0.141-0.952,0.531-1.742,0.871-1.742c0.339,0,1.262-1.201,2.057-2.675l1.452-2.676
				l-2.323-2.903c-1.658-2.08-2.482-2.909-3.534-2.714c-0.045,0.009-0.104,0.051-0.151,0.063
				C599.238,1317.939,605.02,1316.392,611.164,1316.392z M608.778,1321.996c-0.166-0.019-0.351,0.066-0.529,0.24
				c-0.263,0.263-0.19,0.934,0.152,1.49c0.503,0.81,0.688,0.81,0.958,0C609.649,1322.859,609.28,1322.044,608.778,1321.996z
				 M591.98,1322.021c-0.253,0.197-0.533,0.33-0.808,0.505C591.436,1322.348,591.713,1322.193,591.98,1322.021z M621.956,1324.407
				c-0.668,0-1.608,0.755-2.095,1.666c-0.806,1.505-0.733,1.566,0.73,0.783C622.745,1325.703,623.461,1324.407,621.956,1324.407z
				 M414.074,1329.316h38.771v32.36h-38.771V1329.316z M731.432,1329.316h17.921v5.339v1.123c0,2.356,0.677,4.547,1.779,6.462
				h-21.455c1.104-1.915,1.779-4.105,1.779-6.462c0-0.017,0-0.033,0-0.05l-0.024-1.099V1329.316z M582.83,1330.502
				c0.095,0.211,0.16,0.416,0.328,0.618c0.801,0.966,0.701,1.158-0.618,1.061c-0.332-0.025-0.557-0.142-0.77-0.252
				C582.104,1331.438,582.473,1330.974,582.83,1330.502z M599.565,1331.058c-1.249,0-1.563,0.708-0.694,1.578
				c0.597,0.596,1.881-0.063,1.881-0.959C600.752,1331.338,600.223,1331.058,599.565,1331.058z M640.37,1331.676
				c0.227,0.328,0.44,0.663,0.655,0.997C640.813,1332.337,640.595,1332.006,640.37,1331.676z M603.681,1336.056
				c-0.232-0.033-0.53,0.202-1.01,0.681c-1.289,1.29-1.495,2.357-0.315,1.628c0.438-0.271,0.794-0.034,0.795,0.518
				c0,0.69,0.254,0.743,0.82,0.177c0.452-0.452,0.604-1.413,0.328-2.133C604.083,1336.365,603.912,1336.083,603.681,1336.056z
				 M618.321,1340.751c0.524-0.325,1.533,2.127,1.564,3.799c0.006,0.327-0.306,0.593-0.694,0.593
				C618.295,1345.143,617.521,1341.245,618.321,1340.751z M614.799,1340.89c0.555,0.039,0.84,0.43,0.896,1.187
				c0.059,0.813,0.047,1.425-0.037,1.376c-0.083-0.052-0.772-0.253-1.539-0.455c-1.809-0.473-1.789-1.554,0.036-2.032
				C614.4,1340.901,614.615,1340.876,614.799,1340.89z M607.832,1341.635c0.659-0.026,1.21,0.217,1.427,0.782
				c0.239,0.625,1.112,1.136,1.944,1.136c0.83,0,1.514,0.355,1.514,0.795c0,0.438,0.565,0.795,1.249,0.795s1.016,0.355,0.745,0.795
				c-0.27,0.438-1.906,0.795-3.634,0.795c-1.729,0-3.144-0.355-3.144-0.795c0-0.438-0.908-0.795-2.02-0.795
				c-1.729,0-1.908-0.21-1.224-1.489C605.34,1342.44,606.734,1341.671,607.832,1341.635z M643.992,1341.963
				c-0.319,0.003-0.996,0.901-1.502,1.994c-0.508,1.093-0.654,1.982-0.328,1.982c0.327,0,1.003-0.898,1.502-1.995
				C644.165,1342.848,644.313,1341.963,643.992,1341.963z M614.383,1348.437c0.135-0.032,0.64,0.687,1.225,1.768
				c0.675,1.244,1.079,2.406,0.896,2.586c-0.354,0.354-2.213-3.355-2.158-4.304C614.348,1348.454,614.368,1348.447,614.383,1348.437
				z M733.146,1348.702h4.027v6.462h-4.027V1348.702z M743.635,1348.702h2.436v84.649H474.668v-80.964h12.924v64.721
				c0,1.784,1.446,3.23,3.23,3.23h239.094c1.784,0,3.23-1.446,3.23-3.23v-55.482h7.258c1.784,0,3.23-1.447,3.23-3.231V1348.702z
				 M584.56,1352.337c-0.571,0.005-0.467,0.318,0.252,0.782c1.532,0.99,1.812,0.99,1.199,0
				C585.74,1352.68,585.081,1352.337,584.56,1352.337z M632.343,1355.783c-0.286-0.052-0.493,0.132-0.493,0.479
				c0,0.463,0.369,0.846,0.809,0.846s0.795-0.157,0.795-0.354c0-0.194-0.357-0.575-0.795-0.845
				C632.548,1355.84,632.438,1355.799,632.343,1355.783z M636.899,1355.821c-0.07,0-0.157,0.042-0.266,0.101
				c-0.435,0.268-0.794,0.825-0.794,1.237c0,1.147,0.566,0.889,1.097-0.492C637.141,1356.139,637.118,1355.827,636.899,1355.821z
				 M639.322,1359.039c-0.004,0.039,0.036,0.127,0.102,0.265c0.277,0.548,0.123,0.997-0.342,0.997c-0.464,0-0.846,0.397-0.846,0.883
				c0,0.483,0.543,0.67,1.199,0.416c0.658-0.25,1.187-0.111,1.187,0.316c0,0.427,0.185,0.77,0.403,0.77
				c0.778,0,0.379-1.301-0.858-2.827C639.65,1359.219,639.332,1358.917,639.322,1359.039z M635.246,1359.644
				c-0.281,0.033,0.229,1.047,1.615,2.84c0.424,0.548,1.081,0.997,1.464,0.997c0.381,0-0.081-0.885-1.034-1.981
				C636.168,1360.209,635.465,1359.623,635.246,1359.644z M618.246,1363.165c-0.123-0.026-0.275,0.001-0.467,0.077
				c-0.591,0.227-1.074,1.1-1.074,1.931c0,2.17,1.346,1.856,1.78-0.417C618.682,1363.724,618.613,1363.226,618.246,1363.165z
				 M414.074,1368.139h38.771v12.873h-38.771V1368.139z M433.233,1370.739c-1.696,0.122-3.01,1.562-3.005,3.293
				c0.006,1.814,1.451,3.282,3.231,3.282s3.225-1.467,3.23-3.282c0.001-1.817-1.443-3.292-3.229-3.293c0,0-0.001,0-0.002,0
				C433.385,1370.736,433.309,1370.736,433.233,1370.739z M683.521,1375.03v3.483c5.587-0.033,10.973,2.182,14.942,6.134
				c3.752,3.766,5.935,8.81,6.11,14.11l3.482,0.012c-0.178-6.223-2.74-12.162-7.143-16.583
				C696.293,1377.576,690.032,1374.997,683.521,1375.03z M537.331,1381.012c-1.508-0.058-3.041,0.146-4.543,0.645
				c-6.011,1.992-9.706,8.087-8.696,14.337c1.009,6.251,6.428,10.854,12.76,10.854c0.893,0.013,1.626-0.701,1.639-1.593
				c0.013-0.893-0.7-1.626-1.593-1.638c-0.016-0.001-0.03-0.001-0.046,0c-4.769,0-8.807-3.434-9.566-8.142
				c-0.761-4.707,1.986-9.252,6.512-10.752c4.527-1.5,9.446,0.504,11.65,4.733c2.081,3.996,1.053,8.763-2.285,11.687
				c-0.1-0.111-0.176-0.252-0.176-0.429v-0.682c0-0.03,0-0.059,0-0.089c0-0.024,0-0.05,0-0.075c0-0.013,0-0.025,0-0.038v-1.905
				c0.002-0.056,0.002-0.11,0-0.165v-7.445c0.002-0.055,0.002-0.11,0-0.164v-1.881c0.014-0.893-0.699-1.627-1.591-1.641
				c-0.017,0-0.034,0-0.051,0c-0.751,0.012-1.395,0.54-1.553,1.274c-0.841-0.146-1.694-0.146-2.524,0
				c-1.641,0.289-3.183,1.139-4.315,2.486c-2.267,2.695-2.267,6.657,0,9.352c1.767,2.103,4.524,2.937,7.105,2.386
				c0.479,1.191,1.536,2.038,2.814,2.311c0.438,0.224,0.953,0.237,1.401,0.038c0.038-0.017,0.076-0.033,0.113-0.051
				c0.013-0.009,0.024-0.018,0.037-0.025c0.005-0.005,0.009-0.009,0.014-0.013c0.029-0.017,0.059-0.033,0.087-0.051
				c0.148-0.092,0.28-0.208,0.393-0.341c4.786-3.838,6.248-10.563,3.395-16.041C546.117,1383.742,541.857,1381.187,537.331,1381.012
				z M683.535,1381.996l0.011,3.471c3.743-0.036,7.356,1.436,10.009,4.089c2.447,2.456,3.895,5.721,4.064,9.176l3.483,0.013
				c-0.174-4.378-2.002-8.536-5.1-11.649C692.691,1383.793,688.198,1381.964,683.535,1381.996z M683.56,1388.521v3.483
				c1.755,0.067,3.424,0.799,4.668,2.045c1.243,1.247,1.968,2.915,2.034,4.669l3.482,0.014c-0.068-2.678-1.155-5.232-3.054-7.131
				C688.789,1389.702,686.238,1388.593,683.56,1388.521z M537.823,1391.071c0.639-0.111,1.295-0.004,1.932,0.201v6.538
				c-0.002,0.038-0.002,0.076,0,0.114v0.921c-1.545,0.499-3.248,0.1-4.329-1.187c-1.271-1.511-1.271-3.688,0-5.199
				C536.061,1391.704,536.912,1391.229,537.823,1391.071z M684.09,1395.602c-0.706-0.013-1.383,0.261-1.881,0.757
				c-1.019,1.016-1.016,2.668,0.005,3.69c0.002,0.002,0.005,0.005,0.007,0.007c1.019,1.025,2.671,1.034,3.69,0.021
				c0.002-0.004,0.005-0.005,0.009-0.009c1.017-1.015,1.015-2.667-0.005-3.689c-0.004-0.003-0.007-0.005-0.009-0.008
				C685.424,1395.888,684.771,1395.611,684.09,1395.602z M455.925,1439.813h122.134v5.352c0,6.432,5.155,11.8,11.549,11.8h41.536
				c6.393,0,11.536-5.368,11.536-11.8v-5.352h122.134c-1.659,14.441-13.337,25.659-28.26,25.659h-252.37
				C469.263,1465.473,457.584,1454.256,455.925,1439.813z M584.521,1439.813h51.697v5.352c0,3.072-2.263,5.339-5.075,5.339h-41.536
				c-2.813,0-5.086-2.267-5.086-5.339V1439.813z M530.331,1493.661c-0.193,0.021-0.384,0.059-0.568,0.113l-7.535,2.02
				c-2.698,0.724-4.406,3.6-3.673,6.336l2.158,8.039c-1.476,0.938-2.858,1.993-4.152,3.169l-7.193-4.127
				c-2.412-1.393-5.669-0.54-7.068,1.881l-3.9,6.764c-1.4,2.427-0.57,5.667,1.881,7.081l7.194,4.152
				c-0.378,1.711-0.614,3.437-0.694,5.187l-8.002,2.146c-2.698,0.723-4.419,3.6-3.685,6.336c0.004,0.004,0.008,0.008,0.013,0.012
				l0.504,1.881l1.011,3.762l0.491,1.88c0.005,0.004,0.009,0.009,0.014,0.013c0.732,2.734,3.602,4.41,6.348,3.673
				c0.004,0,0.008,0,0.013,0l8.015-2.158c0.945,1.476,1.995,2.859,3.181,4.152l-4.152,7.182c-1.402,2.428-0.557,5.665,1.894,7.081
				l6.764,3.912c2.429,1.4,5.666,0.555,7.081-1.894l4.151-7.194c1.712,0.375,3.438,0.605,5.188,0.682l2.134,8.015
				c0.004,0.004,0.009,0.008,0.012,0.013c0.735,2.743,3.638,4.374,6.349,3.646l7.535-2.02c2.699-0.723,4.406-3.598,3.673-6.335
				l-2.146-8.015c1.474-0.945,2.852-2.009,4.141-3.193l7.207,4.152c2.452,1.408,5.665,0.524,7.067-1.905c0.004,0,0.008,0,0.013,0
				l3.887-6.753h-0.012c1.401-2.428,0.567-5.665-1.881-7.08l-7.182-4.152c0.372-1.712,0.596-3.436,0.669-5.188l8.014-2.158
				c2.699-0.723,4.407-3.598,3.673-6.335c0-0.005,0-0.009,0-0.013l-0.505-1.868l-0.492-1.88c-0.003-0.009-0.008-0.018-0.012-0.025
				l-0.505-1.868l-0.493-1.881c-0.003-0.005-0.008-0.009-0.012-0.013c-0.735-2.744-3.638-4.387-6.349-3.66c-0.005,0-0.009,0-0.013,0
				l-8.002,2.158c-0.94-1.485-1.998-2.875-3.18-4.178l4.14-7.168c1.4-2.427,0.559-5.667-1.894-7.081l-6.765-3.912
				c-2.456-1.418-5.675-0.527-7.081,1.906l-4.152,7.193c-1.712-0.378-3.436-0.602-5.188-0.682l-2.132-8.027l0.075,0.393
				c-0.144-1.043-0.759-2.133-1.489-2.765s-1.456-0.89-1.995-1.035c-0.521-0.142-0.897-0.173-1.11-0.202
				c-0.009-0.004-0.017-0.008-0.025-0.012h-0.011c-0.295-0.094-0.602-0.145-0.909-0.152
				C530.55,1493.655,530.439,1493.655,530.331,1493.661z M530.203,1500.338l2.36,8.822c0.392,1.468,1.752,2.467,3.27,2.398
				c2.838-0.129,5.674,0.249,8.381,1.11c1.445,0.458,3.015-0.151,3.773-1.464l4.568-7.927l4.544,2.625l-4.556,7.901
				c-0.752,1.311-0.495,2.967,0.617,3.988c2.094,1.926,3.828,4.209,5.125,6.739c0.696,1.353,2.242,2.035,3.71,1.642l8.836-2.373
				l0.164,0.631c0,0.008,0,0.018,0,0.025l0.517,1.881l0.492,1.867c0,0.009,0,0.017,0,0.025l0.178,0.631l-8.836,2.373
				c-1.468,0.396-2.461,1.763-2.385,3.281c0.138,2.836-0.223,5.671-1.072,8.381c-0.452,1.441,0.156,3.004,1.463,3.761l7.889,4.569
				l-2.625,4.543l-7.927-4.568c-1.315-0.756-2.98-0.493-4,0.631c-1.908,2.1-4.174,3.85-6.689,5.162
				c-1.342,0.699-2.018,2.236-1.628,3.697l2.36,8.797l-5.075,1.363l-2.359-8.822c-0.39-1.469-1.75-2.467-3.269-2.397
				c-2.837,0.133-5.672-0.23-8.381-1.085c-1.444-0.459-3.015,0.15-3.773,1.464l-4.556,7.9l-4.557-2.625l4.569-7.914
				c0.758-1.313,0.501-2.978-0.619-4.001c-2.102-1.912-3.852-4.192-5.162-6.714c-0.7-1.347-2.244-2.024-3.711-1.628l-8.809,2.373
				l-0.164-0.645c0-0.004,0-0.008,0-0.012l-1.01-3.774c0-0.004,0-0.009,0-0.013l-0.177-0.631l8.81-2.348
				c1.463-0.395,2.455-1.754,2.385-3.269c-0.128-2.839,0.25-5.686,1.11-8.394c0.459-1.445-0.15-3.015-1.463-3.773l-7.901-4.557
				l2.626-4.543l7.9,4.543c1.311,0.752,2.967,0.496,3.988-0.617c1.92-2.092,4.202-3.826,6.727-5.125
				c1.352-0.696,2.035-2.241,1.641-3.71l-2.372-8.835L530.203,1500.338z M537.335,1516.77v0.013
				c-0.213,0.013-0.425,0.047-0.631,0.102c-0.009,0.004-0.017,0.008-0.025,0.012c-1.55,0.02-3.106,0.105-4.606,0.506
				c-0.005,0-0.008,0-0.013,0c-9.136,2.455-15.05,11.377-13.77,20.748c0.066,0.477,0.148,0.952,0.252,1.427
				c0.046,0.256,0.098,0.524,0.164,0.808c0.012,0.042,0.025,0.084,0.039,0.126c0.072,0.261,0.135,0.47,0.188,0.644
				c0.004,0.018,0.008,0.033,0.013,0.051c0.168,0.517,0.357,1.028,0.568,1.527l0.012,0.012c3.581,8.744,13.155,13.506,22.289,11.069
				c0.005,0,0.009,0,0.013,0c9.131-2.465,15.045-11.394,13.757-20.762c-0.026-0.228-0.052-0.45-0.088-0.682
				c-0.004-0.017-0.009-0.033-0.013-0.05c-0.092-0.533-0.203-1.064-0.341-1.591c-0.004-0.017-0.009-0.033-0.014-0.051
				c-0.157-0.57-0.346-1.131-0.555-1.679c-0.004-0.012-0.008-0.025-0.013-0.037l-0.037-0.102c-0.005-0.004-0.009-0.008-0.013-0.012
				c-0.059-0.146-0.104-0.27-0.151-0.379l-0.014-0.014c-2.791-6.82-9.319-11.395-16.685-11.687
				C537.554,1516.766,537.443,1516.766,537.335,1516.77z M537.397,1523.221v0.012h0.014c4.851,0.197,9.132,3.203,10.967,7.699
				c0.009,0.017,0.017,0.033,0.025,0.051c0.052,0.12,0.083,0.225,0.114,0.303v-0.025l0.037,0.101
				c0.134,0.353,0.241,0.702,0.342,1.06v-0.037c0.09,0.342,0.153,0.684,0.214,1.035c0.02,0.124,0.037,0.248,0.051,0.379
				c0.003,0.041,0.008,0.084,0.013,0.126c0.855,6.196-2.988,12.008-9.023,13.644c-6.053,1.613-12.294-1.493-14.653-7.295
				c-0.009-0.018-0.018-0.034-0.025-0.051c-0.135-0.318-0.259-0.646-0.367-0.973l-0.012-0.05c-0.052-0.177-0.095-0.331-0.126-0.442
				c-0.032-0.139-0.059-0.277-0.089-0.441c-0.007-0.042-0.016-0.084-0.025-0.126c-0.067-0.308-0.12-0.618-0.164-0.935
				c-0.84-6.193,3.012-11.994,9.05-13.617C534.932,1523.318,536.165,1523.173,537.397,1523.221z"/>
		</g>
	</g>
	<g id="Layer_6">
	</g>
	<g id="cat">
	</g>
	<g id="rocket">
	</g>
</g>
</svg>
