<?xml version="1.0" encoding="utf-8"?>
<!-- Generator: Adobe Illustrator 16.0.0, SVG Export Plug-In . SVG Version: 6.00 Build 0)  -->
<!DOCTYPE svg PUBLIC "-//W3C//DTD SVG 1.1//EN" "http://www.w3.org/Graphics/SVG/1.1/DTD/svg11.dtd">
<svg version="1.1" xmlns="http://www.w3.org/2000/svg" xmlns:xlink="http://www.w3.org/1999/xlink" x="0px" y="0px"
	 width="1190.55px" height="841.89px" viewBox="0 0 1190.55 841.89" enable-background="new 0 0 1190.55 841.89"
	 xml:space="preserve">
<g id="Layer_1">
</g>
<g id="First_Page">
	<g id="Layer_9">
	</g>
	<g id="Layer_6">
		<g transform="translate(0,-952.36218)">
			<path fill="#010101" d="M462.479,1198.425c-12.708,0-23.955,6.813-31.565,16.958c-7.608,10.146-12.006,23.735-12.006,38.496
				v142.594c0,14.76,4.397,28.225,12.006,38.371c7.61,10.145,18.857,17.081,31.565,17.081h97.542
				c-7.338,8.393-12.213,19.489-13.741,31.688h-52.112c-0.248-0.012-0.495-0.012-0.743,0c-4.375,0.197-7.763,3.903-7.564,8.278
				c0.198,4.378,3.904,7.764,8.279,7.567c0.01-0.001,0.02-0.003,0.028-0.003h58.796h80.584h58.673
				c4.375,0.063,7.974-3.434,8.034-7.81c0.064-4.375-3.433-7.974-7.809-8.033c-0.075-0.002-0.15-0.002-0.226,0h-52.112
				c-1.528-12.199-6.401-23.296-13.74-31.688h97.541c12.711,0,23.957-6.937,31.565-17.081c7.608-10.146,12.006-23.611,12.006-38.371
				v-142.594c0-14.761-4.397-28.351-12.006-38.496c-7.608-10.145-18.854-16.958-31.565-16.958H462.479z M462.479,1214.269h261.43
				c7.041,0,13.661,3.607,18.938,10.645c5.278,7.038,8.789,17.393,8.789,28.965v142.594c0,11.573-3.511,21.804-8.789,28.841
				c-5.277,7.038-11.897,10.769-18.938,10.769h-261.43c-7.041,0-13.661-3.73-18.94-10.769c-5.276-7.037-8.787-17.268-8.787-28.841
				v-142.594c0-11.572,3.511-21.928,8.787-28.965C448.817,1217.876,455.438,1214.269,462.479,1214.269z M466.438,1222.191
				c-7.575,0-13.924,4.548-17.824,10.397c-3.898,5.851-5.941,13.29-5.941,21.291v142.594c0,8,2.043,15.316,5.941,21.165
				c3.9,5.851,10.249,10.522,17.824,10.522h253.508c7.579,0,13.927-4.672,17.826-10.522c3.9-5.849,5.941-13.165,5.941-21.165
				v-142.594c0-8-2.041-15.44-5.941-21.291c-3.899-5.849-10.247-10.397-17.826-10.397H466.438z M466.438,1238.035h253.508
				c1.2,0,2.753,0.601,4.58,3.342c1.829,2.741,3.343,7.336,3.343,12.502v142.594c0,5.165-1.514,9.636-3.343,12.377
				c-1.827,2.743-3.38,3.467-4.58,3.467H466.438c-1.2,0-2.751-0.724-4.578-3.467c-1.829-2.741-3.343-7.212-3.343-12.377v-142.594
				c0-5.166,1.514-9.761,3.343-12.502C463.688,1238.635,465.238,1238.035,466.438,1238.035z M565.466,1265.761
				c-10.845,0-19.805,8.96-19.805,19.805s8.96,19.805,19.805,19.805c5.021,0,9.604-1.929,13.121-5.076l23.891,17.949
				c-0.83,2.17-1.36,4.491-1.36,6.931c0,2.4,0.558,4.668,1.36,6.809l-24.015,18.07c-3.508-3.109-8.009-5.075-12.997-5.075
				c-10.845,0-19.805,8.962-19.805,19.806c0,10.843,8.96,19.804,19.805,19.804c10.844,0,19.807-8.961,19.807-19.804l28.346-21.292
				c2.271,0.92,4.726,1.486,7.303,1.486c10.845,0,19.807-8.96,19.807-19.804s-8.962-19.805-19.807-19.805
				c-2.535,0-4.938,0.594-7.18,1.485l-28.469-21.29C585.272,1274.722,576.31,1265.761,565.466,1265.761z M565.466,1281.604
				c2.281,0,3.96,1.68,3.96,3.961c0,2.282-1.679,3.961-3.96,3.961c-2.28,0-3.961-1.679-3.961-3.961
				C561.505,1283.285,563.186,1281.604,565.466,1281.604z M620.921,1321.214c2.281,0,3.96,1.68,3.96,3.961s-1.679,3.96-3.96,3.96
				c-2.282,0-3.962-1.679-3.962-3.96C616.959,1322.894,618.639,1321.214,620.921,1321.214z M565.466,1360.824
				c2.281,0,3.96,1.68,3.96,3.961s-1.679,3.96-3.96,3.96c-2.28,0-3.961-1.679-3.961-3.96S563.186,1360.824,565.466,1360.824z
				 M593.193,1451.925c14.648,0,27.364,13.247,30.45,31.688h-60.9C565.83,1465.172,578.545,1451.925,593.193,1451.925z"/>
		</g>
	</g>
	<g id="cat">
	</g>
	<g id="rocket">
	</g>
</g>
</svg>
