<?xml version="1.0" encoding="utf-8"?>
<!-- Generator: Adobe Illustrator 16.0.0, SVG Export Plug-In . SVG Version: 6.00 Build 0)  -->
<!DOCTYPE svg PUBLIC "-//W3C//DTD SVG 1.1//EN" "http://www.w3.org/Graphics/SVG/1.1/DTD/svg11.dtd">
<svg version="1.1" xmlns="http://www.w3.org/2000/svg" xmlns:xlink="http://www.w3.org/1999/xlink" x="0px" y="0px"
	 width="1190.55px" height="841.89px" viewBox="0 0 1190.55 841.89" enable-background="new 0 0 1190.55 841.89"
	 xml:space="preserve">
<g id="Layer_1">
</g>
<g id="First_Page">
	<path fill="#010101" d="M656.176,268.634l14.311-14.313c2.574-2.565,2.607-6.869-0.025-9.496c-2.641-2.654-6.877-2.647-9.498-0.027
		l-14.311,14.313l-14.313-14.313c-2.566-2.572-6.871-2.606-9.496,0.027c-2.654,2.64-2.648,6.876-0.027,9.496l14.313,14.313
		l-14.313,14.312c-2.574,2.566-2.607,6.87,0.027,9.497c2.639,2.653,6.875,2.646,9.496,0.026l14.313-14.312l14.311,14.312
		c2.566,2.573,6.863,2.607,9.498-0.026c2.652-2.641,2.646-6.877,0.025-9.497L656.176,268.634z"/>
</g>
</svg>
