<?xml version="1.0" encoding="utf-8"?>
<!-- Generator: Adobe Illustrator 16.0.0, SVG Export Plug-In . SVG Version: 6.00 Build 0)  -->
<!DOCTYPE svg PUBLIC "-//W3C//DTD SVG 1.1//EN" "http://www.w3.org/Graphics/SVG/1.1/DTD/svg11.dtd">
<svg version="1.1" xmlns="http://www.w3.org/2000/svg" xmlns:xlink="http://www.w3.org/1999/xlink" x="0px" y="0px"
	 width="1190.55px" height="841.89px" viewBox="0 0 1190.55 841.89" enable-background="new 0 0 1190.55 841.89"
	 xml:space="preserve">
<g id="Layer_1">
</g>
<g id="First_Page">
	<path fill="#010101" d="M761.953,252l-9.537,9.543c-2.594,2.586-2.621,6.877,0.014,9.51c2.646,2.647,6.883,2.633,9.51,0.013
		l9.537-9.543l9.537,9.543c2.592,2.586,6.883,2.613,9.51-0.013c2.652-2.654,2.639-6.89,0.014-9.51L781,252l9.537-9.544
		c2.592-2.586,2.619-6.876-0.014-9.51c-2.641-2.647-6.885-2.633-9.51-0.013l-9.537,9.544l-9.537-9.544
		c-2.594-2.586-6.877-2.613-9.51,0.013c-2.654,2.654-2.641,6.89-0.014,9.51L761.953,252z"/>
</g>
</svg>
